<svg width="61" height="25" viewBox="0 0 61 25" fill="none" xmlns="http://www.w3.org/2000/svg">
<path d="M33.3255 12.0801L33.2037 11.4677H33.1428C33.0379 11.5997 32.8925 11.7215 32.7131 11.8365C32.3207 12.0801 31.8707 12.2053 31.3665 12.2053C30.6797 12.2053 30.1316 12.0226 29.7188 11.6538C29.306 11.285 29.0996 10.8384 29.0996 10.3072C29.0996 9.67108 29.3195 9.16356 29.7628 8.788C30.2026 8.41244 30.8421 8.22635 31.6744 8.22635H33.0819V8.10454C33.0819 7.75266 32.9804 7.47183 32.7808 7.25868C32.5812 7.04552 32.3139 6.94063 31.9789 6.94063C31.6609 6.94063 31.4037 7.02183 31.2143 7.18424C31.0214 7.34665 30.9098 7.53274 30.8759 7.73575H29.3466C29.421 7.17409 29.6816 6.69364 30.1316 6.30454C30.5816 5.91206 31.1973 5.71582 31.9823 5.71582C32.7673 5.71582 33.4 5.9459 33.8872 6.40266C34.3744 6.85943 34.6146 7.42785 34.6146 8.10454V12.0835H33.3255V12.0801ZM33.0819 9.56958V9.38687H31.7962C31.0214 9.38687 30.6323 9.65078 30.6323 10.182C30.6323 10.4256 30.7169 10.6218 30.8895 10.7639C31.062 10.906 31.3022 10.9771 31.6101 10.9771C32.077 10.9771 32.4357 10.8519 32.6928 10.6049C32.9534 10.3545 33.0819 10.0094 33.0819 9.56958Z" fill="white"/>
<path d="M35.5918 12.0805V3.50684H37.1211V6.50796H37.182C37.2971 6.36247 37.4392 6.23052 37.6117 6.11548C38.011 5.84481 38.461 5.71285 38.9583 5.71285C39.7737 5.71285 40.4572 6.01398 41.0087 6.61285C41.5602 7.21172 41.8343 7.9933 41.8343 8.95759C41.8343 9.92187 41.5602 10.7035 41.0087 11.3023C40.4572 11.9012 39.7737 12.2023 38.9583 12.2023C38.4204 12.2023 37.9535 12.0704 37.561 11.8098C37.3884 11.6948 37.2429 11.5595 37.1211 11.4072H37.0602L36.9384 12.0805H35.5918ZM37.561 10.311C37.8553 10.6324 38.2377 10.7948 38.7113 10.7948C39.185 10.7948 39.5674 10.6324 39.8617 10.311C40.1561 9.98954 40.3016 9.53616 40.3016 8.95759C40.3016 8.37902 40.1561 7.92563 39.8617 7.60421C39.5674 7.28278 39.185 7.12037 38.7113 7.12037C38.2377 7.12037 37.8553 7.28278 37.561 7.60421C37.2666 7.92563 37.1211 8.37902 37.1211 8.95759C37.1211 9.53616 37.27 9.98954 37.561 10.311Z" fill="white"/>
<path d="M42.5723 12.0805V3.50684H44.1016V6.50796H44.1625C44.2775 6.36247 44.4196 6.23052 44.5922 6.11548C44.9914 5.84481 45.4414 5.71285 45.9388 5.71285C46.7542 5.71285 47.4377 6.01398 47.9892 6.61285C48.5407 7.21172 48.8147 7.9933 48.8147 8.95759C48.8147 9.92187 48.5407 10.7035 47.9892 11.3023C47.4377 11.9012 46.7542 12.2023 45.9388 12.2023C45.4008 12.2023 44.9339 12.0704 44.5414 11.8098C44.3689 11.6948 44.2234 11.5595 44.1016 11.4072H44.0407L43.9189 12.0805H42.5723ZM44.5414 10.311C44.8358 10.6324 45.2181 10.7948 45.6918 10.7948C46.1655 10.7948 46.5478 10.6324 46.8422 10.311C47.1365 9.98954 47.282 9.53616 47.282 8.95759C47.282 8.37902 47.1365 7.92563 46.8422 7.60421C46.5478 7.28278 46.1655 7.12037 45.6918 7.12037C45.2181 7.12037 44.8358 7.28278 44.5414 7.60421C44.2471 7.92563 44.1016 8.37902 44.1016 8.95759C44.1016 9.53616 44.2505 9.98954 44.5414 10.311Z" fill="white"/>
<path d="M53.4095 12.0801L53.2877 11.4677H53.2268C53.1219 11.5997 52.9765 11.7215 52.7971 11.8365C52.4047 12.0801 51.9546 12.2053 51.4505 12.2053C50.7637 12.2053 50.2156 12.0226 49.8028 11.6538C49.39 11.285 49.1836 10.8384 49.1836 10.3072C49.1836 9.67108 49.4035 9.16356 49.8468 8.788C50.2866 8.41244 50.9261 8.22635 51.7584 8.22635H53.1659V8.10454C53.1659 7.75266 53.0644 7.47183 52.8648 7.25868C52.6652 7.04552 52.3979 6.94063 52.0629 6.94063C51.7449 6.94063 51.4877 7.02183 51.2983 7.18424C51.1054 7.34665 50.9937 7.53274 50.9599 7.73575H49.4306C49.505 7.17409 49.7656 6.69364 50.2156 6.30454C50.6656 5.91206 51.2813 5.71582 52.0663 5.71582C52.8513 5.71582 53.484 5.9459 53.9712 6.40266C54.4584 6.85943 54.6986 7.42785 54.6986 8.10454V12.0835H53.4095V12.0801ZM53.1659 9.56958V9.38687H51.8802C51.1054 9.38687 50.7163 9.65078 50.7163 10.182C50.7163 10.4256 50.8009 10.6218 50.9734 10.7639C51.146 10.906 51.3862 10.9771 51.6941 10.9771C52.161 10.9771 52.5197 10.8519 52.7768 10.6049C53.0374 10.3545 53.1659 10.0094 53.1659 9.56958Z" fill="white"/>
<path d="M29.4082 21.1211V14.8752H30.8157L30.9375 15.4876H30.9984C31.0965 15.3556 31.2184 15.2338 31.3672 15.1188C31.692 14.8752 32.0608 14.75 32.4702 14.75C32.9608 14.75 33.3973 14.8921 33.7796 15.1797C33.9522 15.3252 34.0841 15.4707 34.1823 15.6094H34.2432C34.348 15.4707 34.4969 15.3286 34.683 15.1797C35.0823 14.8955 35.5492 14.75 36.0804 14.75C36.7266 14.75 37.2747 14.9936 37.7281 15.4774C38.1815 15.9613 38.4082 16.5568 38.4082 17.2605V21.1177H36.8789V17.3857C36.8789 16.9932 36.7841 16.6921 36.5981 16.4789C36.412 16.2658 36.1582 16.1609 35.8402 16.1609C35.4984 16.1609 35.2176 16.2759 35.0011 16.5094C34.7845 16.7429 34.6762 17.0338 34.6762 17.3857V21.1211H33.1469V17.3857C33.1469 16.9932 33.0522 16.6921 32.8661 16.4789C32.6766 16.2658 32.4262 16.1609 32.1082 16.1609C31.7665 16.1609 31.4856 16.2759 31.2691 16.5094C31.0526 16.7429 30.9443 17.0338 30.9443 17.3857V21.1211H29.4082Z" fill="white"/>
<path d="M43.4896 19.2838H45.0832C45.0426 19.4394 44.9614 19.612 44.843 19.8049C44.7246 19.9977 44.5588 20.2075 44.3422 20.4409C44.1257 20.6744 43.8313 20.8639 43.4558 21.0161C43.0802 21.1684 42.664 21.2428 42.2073 21.2428C41.2836 21.2428 40.5223 20.9383 39.9234 20.3293C39.3246 19.7203 39.0234 18.9421 39.0234 17.9947C39.0234 17.0473 39.3246 16.2691 39.9234 15.6601C40.5223 15.0511 41.2836 14.7466 42.2073 14.7466C43.0633 14.7466 43.7874 15.0477 44.3795 15.6466C44.9716 16.2455 45.2659 16.9864 45.2659 17.8695C45.2659 17.944 45.2524 18.0894 45.2287 18.3094L45.205 18.4819H40.5528C40.6171 18.9218 40.8031 19.277 41.1043 19.5477C41.4054 19.8184 41.7742 19.9503 42.2073 19.9503C42.5321 19.9503 42.8095 19.8793 43.0396 19.7372C43.2663 19.5985 43.4186 19.4462 43.4896 19.2838ZM40.5528 17.4466H43.7366C43.6622 17.0304 43.493 16.6921 43.2291 16.4315C42.9652 16.171 42.6234 16.0391 42.2073 16.0391C41.7674 16.0391 41.4054 16.1676 41.1246 16.4248C40.8404 16.6785 40.6509 17.0203 40.5528 17.4466Z" fill="white"/>
<path d="M50.5306 21.1213L50.4088 20.448H50.3479C50.2261 20.6036 50.0772 20.739 49.9081 20.8506C49.5156 21.1112 49.0521 21.2431 48.5107 21.2431C47.6953 21.2431 47.0118 20.942 46.4603 20.3431C45.9088 19.7442 45.6348 18.9627 45.6348 17.9984C45.6348 17.0341 45.9088 16.2525 46.4603 15.6536C47.0118 15.0548 47.6953 14.7536 48.5107 14.7536C49.0013 14.7536 49.4479 14.889 49.8573 15.1563C50.0299 15.2713 50.172 15.3999 50.287 15.5488H50.3479V13.292H51.8773V21.1213H50.5306ZM47.6039 19.3518C47.8983 19.6732 48.2806 19.8356 48.7543 19.8356C49.228 19.8356 49.6103 19.6732 49.9047 19.3518C50.199 19.0303 50.3445 18.577 50.3445 17.9984C50.3445 17.4198 50.199 16.9664 49.9047 16.645C49.6103 16.3236 49.228 16.1612 48.7543 16.1612C48.2806 16.1612 47.8983 16.3236 47.6039 16.645C47.3096 16.9664 47.1641 17.4198 47.1641 17.9984C47.1641 18.577 47.313 19.027 47.6039 19.3518Z" fill="white"/>
<path d="M52.9199 21.1223V14.8765H54.4492V21.1223H52.9199Z" fill="white"/>
<path d="M59.347 21.1216L59.2252 20.5092H59.1643C59.0594 20.6412 58.9139 20.763 58.7346 20.878C58.3421 21.1216 57.8921 21.2468 57.388 21.2468C56.7012 21.2468 56.153 21.0641 55.7403 20.6953C55.3275 20.3265 55.1211 19.8799 55.1211 19.3487C55.1211 18.7126 55.341 18.2051 55.7842 17.8295C56.2241 17.4539 56.8636 17.2678 57.6959 17.2678H59.1034V17.146C59.1034 16.7942 59.0019 16.5133 58.8023 16.3002C58.6027 16.087 58.3354 15.9821 58.0004 15.9821C57.6824 15.9821 57.4252 16.0633 57.2358 16.2257C57.0429 16.3881 56.9312 16.5742 56.8974 16.7772H55.3681C55.4425 16.2156 55.703 15.7351 56.153 15.346C56.603 14.9536 57.2188 14.7573 58.0038 14.7573C58.7888 14.7573 59.4215 14.9874 59.9087 15.4442C60.3959 15.9009 60.6361 16.4694 60.6361 17.146V21.125H59.347V21.1216ZM59.1034 18.6111V18.4284H57.8177C57.0429 18.4284 56.6538 18.6923 56.6538 19.2235C56.6538 19.4671 56.7384 19.6633 56.9109 19.8054C57.0835 19.9475 57.3237 20.0186 57.6316 20.0186C58.0985 20.0186 58.4572 19.8934 58.7143 19.6464C58.9749 19.396 59.1034 19.0509 59.1034 18.6111Z" fill="white"/>
<path d="M8.84122 18.3794C8.21867 18.3794 7.71115 18.5892 7.31529 19.0121C6.9228 19.435 6.72656 19.9662 6.72656 20.6057V24.7504H10.736V20.6057C10.736 19.8952 10.5634 19.3437 10.2251 18.958C9.88333 18.5723 9.4198 18.3794 8.84122 18.3794Z" fill="white"/>
<path d="M5.10253 16.5959C5.41381 16.8632 5.6608 17.1237 5.83674 17.3741H5.9484C6.14125 17.1237 6.40855 16.8632 6.75028 16.5959C7.47772 16.0782 8.32359 15.8177 9.28787 15.8177C10.4619 15.8177 11.4601 16.2609 12.2822 17.144C13.1078 18.0271 13.5172 19.1064 13.5172 20.382V24.75H24.8721L16.3559 0H8.64163L3.1875 15.8447C3.88788 15.9226 4.52735 16.1695 5.10253 16.5959Z" fill="white"/>
<path d="M3.94492 20.6049C3.94492 19.8943 3.77575 19.3428 3.43402 18.9571C3.14304 18.6289 2.77086 18.4428 2.31071 18.3921L0.125 24.7496H3.94831V20.6049H3.94492Z" fill="white"/>
</svg>
