<svg width="65" height="26" viewBox="0 0 65 26" fill="none" xmlns="http://www.w3.org/2000/svg">
<path d="M33.8306 11.6398L33.7074 11.0204H33.6458C33.5398 11.1539 33.3926 11.277 33.2113 11.3934C32.8143 11.6398 32.3592 11.7664 31.8493 11.7664C31.1547 11.7664 30.6003 11.5816 30.1829 11.2086C29.7654 10.8356 29.5566 10.3839 29.5566 9.84668C29.5566 9.20336 29.7791 8.69006 30.2273 8.31023C30.6722 7.93039 31.3189 7.7422 32.1607 7.7422H33.5843V7.619C33.5843 7.26312 33.4816 6.9791 33.2797 6.76352C33.0778 6.54794 32.8075 6.44186 32.4687 6.44186C32.147 6.44186 31.887 6.52399 31.6953 6.68824C31.5003 6.85249 31.3874 7.0407 31.3532 7.24601H29.8064C29.8817 6.67797 30.1452 6.19206 30.6003 5.79854C31.0554 5.40159 31.6782 5.20312 32.4721 5.20312C33.266 5.20312 33.9059 5.43582 34.3987 5.89778C34.8914 6.35974 35.1344 6.93462 35.1344 7.619V11.6432H33.8306V11.6398ZM33.5843 9.1007V8.91592H32.2839C31.5003 8.91592 31.1068 9.18283 31.1068 9.72007C31.1068 9.96645 31.1923 10.1649 31.3668 10.3086C31.5414 10.4524 31.7843 10.5242 32.0957 10.5242C32.5679 10.5242 32.9307 10.3976 33.1907 10.1478C33.4542 9.89459 33.5843 9.54555 33.5843 9.1007Z" fill="white"/>
<path d="M36.123 11.6399V2.96875H37.6698V6.004H37.7314C37.8477 5.85685 37.9914 5.7234 38.1659 5.60705C38.5697 5.3333 39.0248 5.19984 39.5279 5.19984C40.3526 5.19984 41.0438 5.50439 41.6016 6.11007C42.1593 6.71575 42.4365 7.50622 42.4365 8.48147C42.4365 9.45671 42.1593 10.2472 41.6016 10.8529C41.0438 11.4585 40.3526 11.7631 39.5279 11.7631C38.9838 11.7631 38.5116 11.6296 38.1146 11.3662C37.9401 11.2498 37.7929 11.1129 37.6698 10.9589H37.6082L37.485 11.6399H36.123ZM38.1146 9.85024C38.4123 10.1753 38.799 10.3396 39.2781 10.3396C39.7571 10.3396 40.1438 10.1753 40.4415 9.85024C40.7392 9.52515 40.8864 9.06661 40.8864 8.48147C40.8864 7.89632 40.7392 7.43778 40.4415 7.1127C40.1438 6.78761 39.7571 6.62336 39.2781 6.62336C38.799 6.62336 38.4123 6.78761 38.1146 7.1127C37.8169 7.43778 37.6698 7.89632 37.6698 8.48147C37.6698 9.06661 37.8203 9.52173 38.1146 9.85024Z" fill="white"/>
<path d="M43.1836 11.6399V2.96875H44.7303V6.004H44.7919C44.9082 5.85685 45.052 5.7234 45.2265 5.60705C45.6303 5.3333 46.0854 5.19984 46.5884 5.19984C47.4131 5.19984 48.1043 5.50439 48.6621 6.11007C49.2199 6.71575 49.497 7.50622 49.497 8.48147C49.497 9.45671 49.2199 10.2472 48.6621 10.8529C48.1043 11.4585 47.4131 11.7631 46.5884 11.7631C46.0443 11.7631 45.5721 11.6296 45.1752 11.3662C45.0006 11.2498 44.8535 11.1129 44.7303 10.9589H44.6687L44.5455 11.6399H43.1836ZM45.1786 9.85024C45.4763 10.1753 45.863 10.3396 46.342 10.3396C46.8211 10.3396 47.2078 10.1753 47.5055 9.85024C47.8032 9.52515 47.9503 9.06661 47.9503 8.48147C47.9503 7.89632 47.8032 7.43778 47.5055 7.1127C47.2078 6.78761 46.8211 6.62336 46.342 6.62336C45.863 6.62336 45.4763 6.78761 45.1786 7.1127C44.8809 7.43778 44.7337 7.89632 44.7337 8.48147C44.7303 9.06661 44.8809 9.52173 45.1786 9.85024Z" fill="white"/>
<path d="M54.1431 11.6398L54.0199 11.0204H53.9583C53.8523 11.1539 53.7051 11.277 53.5238 11.3934C53.1268 11.6398 52.6717 11.7664 52.1618 11.7664C51.4672 11.7664 50.9128 11.5816 50.4953 11.2086C50.0779 10.8356 49.8691 10.3839 49.8691 9.84668C49.8691 9.20336 50.0916 8.69006 50.5398 8.31023C50.9847 7.93039 51.6314 7.7422 52.4732 7.7422H53.8967V7.619C53.8967 7.26312 53.7941 6.9791 53.5922 6.76352C53.3903 6.54794 53.12 6.44186 52.7812 6.44186C52.4595 6.44186 52.1995 6.52399 52.0078 6.68824C51.8128 6.85249 51.6999 7.0407 51.6657 7.24601H50.1189C50.1942 6.67797 50.4577 6.19206 50.9128 5.79854C51.3679 5.40159 51.9907 5.20312 52.7846 5.20312C53.5785 5.20312 54.2184 5.43582 54.7112 5.89778C55.2039 6.35974 55.4469 6.93462 55.4469 7.619V11.6432H54.1431V11.6398ZM53.8967 9.1007V8.91592H52.5964C51.8128 8.91592 51.4193 9.18283 51.4193 9.72007C51.4193 9.96645 51.5048 10.1649 51.6793 10.3086C51.8538 10.4524 52.0968 10.5242 52.4082 10.5242C52.8804 10.5242 53.2432 10.3976 53.5032 10.1478C53.7667 9.89459 53.8967 9.54555 53.8967 9.1007Z" fill="white"/>
<path d="M33.8783 19.4055H35.3805C35.3257 19.6792 35.2333 19.9427 35.1101 20.1994C34.987 20.456 34.8159 20.7092 34.6003 20.9624C34.3847 21.2157 34.0938 21.4175 33.7277 21.575C33.365 21.7324 32.9543 21.8077 32.4958 21.8077C31.5924 21.8077 30.843 21.5099 30.2579 20.9145C29.6693 20.3191 29.375 19.556 29.375 18.6253C29.375 17.6979 29.6693 16.9348 30.2579 16.336C30.8464 15.7406 31.5924 15.4429 32.4958 15.4429C32.9509 15.4429 33.3615 15.5216 33.7277 15.6756C34.0904 15.833 34.3813 16.0349 34.6003 16.2812C34.8159 16.531 34.987 16.7774 35.1101 17.0272C35.2333 17.277 35.3257 17.5268 35.3805 17.7835H33.8783C33.6387 17.1436 33.1768 16.8219 32.4958 16.8219C32.0407 16.8219 31.654 16.9896 31.3426 17.3249C31.0312 17.6603 30.8738 18.0949 30.8738 18.6218C30.8738 19.1488 31.0312 19.5834 31.3426 19.9188C31.654 20.2541 32.0407 20.4218 32.4958 20.4218C33.2041 20.4252 33.6627 20.0864 33.8783 19.4055Z" fill="white"/>
<path d="M36.5645 16.336C37.1531 15.7406 37.8991 15.4429 38.8024 15.4429C39.7058 15.4429 40.4552 15.7406 41.0438 16.336C41.6324 16.9314 41.9267 17.6945 41.9267 18.6253C41.9267 19.5526 41.6324 20.3157 41.0438 20.9145C40.4552 21.5099 39.7093 21.8077 38.8024 21.8077C37.8991 21.8077 37.1497 21.5099 36.5645 20.9145C35.9759 20.3191 35.6816 19.556 35.6816 18.6253C35.6816 17.6979 35.9759 16.9348 36.5645 16.336ZM37.6492 19.9222C37.9606 20.2575 38.3473 20.4252 38.8024 20.4252C39.2576 20.4252 39.6442 20.2575 39.9556 19.9222C40.267 19.5868 40.4244 19.1522 40.4244 18.6253C40.4244 18.0983 40.267 17.6637 39.9556 17.3284C39.6442 16.993 39.2576 16.8253 38.8024 16.8253C38.3473 16.8253 37.9606 16.993 37.6492 17.3284C37.3379 17.6637 37.1804 18.0983 37.1804 18.6253C37.1839 19.1557 37.3379 19.5868 37.6492 19.9222Z" fill="white"/>
<path d="M47.0895 21.6889L46.9698 21.0285H46.9082C46.7884 21.1825 46.6447 21.3125 46.477 21.4254C46.0938 21.6821 45.6352 21.8087 45.1082 21.8087C44.3075 21.8087 43.6368 21.5144 43.0962 20.9258C42.5555 20.3373 42.2852 19.5707 42.2852 18.6263C42.2852 17.6818 42.5555 16.9153 43.0962 16.3268C43.6368 15.7382 44.3075 15.4439 45.1082 15.4439C45.5873 15.4439 46.0287 15.5774 46.4291 15.8409C46.5968 15.9538 46.7371 16.0804 46.85 16.2241H46.9116V13.2812H48.4138V21.6889H47.0895ZM44.2185 19.954C44.506 20.2688 44.8824 20.4297 45.3478 20.4297C45.8132 20.4297 46.1896 20.2722 46.477 19.954C46.7645 19.6392 46.9082 19.1943 46.9082 18.6263C46.9082 18.0583 46.7645 17.6168 46.477 17.2986C46.1896 16.9838 45.8132 16.8229 45.3478 16.8229C44.8824 16.8229 44.506 16.9804 44.2185 17.2986C43.9311 17.6134 43.7874 18.0583 43.7874 18.6263C43.7874 19.1943 43.9311 19.6358 44.2185 19.954Z" fill="white"/>
<path d="M49.373 14.6018V13.1611H50.995V14.6018H49.373ZM49.4312 21.6886V15.5633H50.9334V21.6886H49.4312Z" fill="white"/>
<path d="M51.8945 21.6879V15.5626H53.277L53.3968 16.1615H53.4584C53.5542 16.0417 53.691 15.9219 53.8656 15.8022C54.2351 15.5626 54.6595 15.4429 55.1385 15.4429C55.8366 15.4429 56.4081 15.6824 56.8632 16.1581C57.3149 16.6337 57.5407 17.2565 57.5407 18.0264V21.6879H56.0385V18.1462C56.0385 17.7527 55.9153 17.4344 55.6723 17.1915C55.4294 16.9485 55.1111 16.8253 54.7176 16.8253C54.3241 16.8253 54.0059 16.9485 53.7629 17.1915C53.52 17.4344 53.3968 17.7527 53.3968 18.1462V21.6879H51.8945Z" fill="white"/>
<path d="M58.3181 21.9895H59.8785C59.9093 22.1161 59.964 22.2427 60.0359 22.3625C60.1077 22.4823 60.2446 22.602 60.4499 22.7184C60.6552 22.8347 60.905 22.8929 61.1993 22.8929C61.6305 22.8929 61.9795 22.7697 62.243 22.5199C62.5065 22.2701 62.64 21.9347 62.64 21.5104V20.6686H62.5784C62.4826 20.7816 62.3457 20.8945 62.1712 21.004C61.8427 21.2196 61.4183 21.3291 60.8982 21.3291C60.1043 21.3291 59.4473 21.0553 58.9238 20.5078C58.4002 19.9603 58.1367 19.2519 58.1367 18.3896C58.1367 17.5239 58.4002 16.819 58.9238 16.2715C59.4473 15.7239 60.1077 15.4502 60.8982 15.4502C61.3944 15.4502 61.8358 15.57 62.2191 15.8095C62.3936 15.9224 62.5339 16.0422 62.64 16.1688H62.7016L62.8213 15.57H64.1422V21.5275C64.1422 22.3351 63.8753 22.9853 63.3449 23.478C62.8111 23.9708 62.0993 24.2172 61.2028 24.2172C60.7545 24.2172 60.3507 24.1521 59.9914 24.0255C59.6321 23.8955 59.3515 23.7415 59.1496 23.5567C58.9511 23.372 58.7835 23.1735 58.65 22.9579C58.5166 22.7423 58.431 22.5541 58.3865 22.3933C58.342 22.2256 58.3181 22.0921 58.3181 21.9895ZM62.2122 17.2193C61.9248 16.9148 61.5689 16.7642 61.1446 16.7642C60.7203 16.7642 60.3644 16.9148 60.0769 17.2193C59.7895 17.5239 59.6458 17.9106 59.6458 18.3828C59.6458 18.855 59.7895 19.2451 60.0769 19.5462C60.3644 19.8508 60.7203 20.0014 61.1446 20.0014C61.5689 20.0014 61.9248 19.8508 62.2122 19.5462C62.4997 19.2417 62.6434 18.855 62.6434 18.3828C62.6434 17.914 62.4997 17.5239 62.2122 17.2193Z" fill="white"/>
<path d="M3.31385 16.7161C4.63471 15.3781 6.30803 14.7074 8.34065 14.7074C9.36381 14.7074 10.2843 14.882 11.1021 15.2344C11.92 15.5835 12.5702 16.0386 13.0561 16.5963C13.542 17.1541 13.9218 17.7119 14.2024 18.2662C14.4796 18.824 14.6815 19.3886 14.8081 19.9635H11.4409C10.9003 18.5263 9.86683 17.8077 8.34065 17.8077C7.3175 17.8077 6.45517 18.1841 5.75368 18.9404C5.05218 19.6932 4.70315 20.665 4.70315 21.8524C4.70315 23.0398 5.05218 24.0082 5.75368 24.7645C5.84265 24.8603 5.93162 24.9493 6.02743 25.0314H10.1132H10.6368C10.9858 24.6687 11.2561 24.1964 11.4443 23.6045H14.8115C14.7123 24.0904 14.5617 24.566 14.3632 25.0314H25.286L16.673 0H8.87105L3.17697 16.5519L2.99219 17.0925C3.09142 16.9625 3.1975 16.8359 3.31385 16.7161Z" fill="white"/>
<path d="M1.33475 21.8755L0.25 25.0271H1.97807C1.55718 24.0929 1.33817 23.0458 1.33475 21.8755Z" fill="white"/>
</svg>
