<svg width="87" height="78" viewBox="0 0 87 78" fill="none" xmlns="http://www.w3.org/2000/svg">
<g clip-path="url(#clip0_18_728)">
<path d="M62.779 8.03589C58.9414 4.19857 54.0525 1.58548 48.7303 0.526991C43.4081 -0.531497 37.8916 0.0121499 32.8783 2.08919C27.865 4.16623 23.5799 7.6834 20.5649 12.196C17.5498 16.7087 15.9402 22.0141 15.9395 27.4417V44.9528H18.0993V27.4417C18.0993 20.7363 20.7624 14.3056 25.5028 9.56416C30.2432 4.82274 36.6726 2.15905 43.3765 2.15905C50.0804 2.15905 56.5098 4.82274 61.2501 9.56416C65.9905 14.3056 68.6537 20.7363 68.6537 27.4417V44.9528H70.8131V27.4417C70.8228 23.8365 70.1178 20.2651 68.7388 16.9341C67.3597 13.6032 65.3341 10.5788 62.779 8.03589Z" fill="white"/>
<path d="M43.3763 37.8728C43.2952 37.8729 43.2141 37.8769 43.1331 37.8776C42.9912 37.1042 42.8645 36.328 42.7531 35.5488C45.308 35.4184 47.7503 34.4563 49.708 32.8092C51.6657 31.1621 53.0316 28.9201 53.5976 26.4247L53.8175 25.4424L52.8109 25.4913C50.5416 25.5988 48.3525 26.3643 46.5106 27.6946C44.6687 29.025 43.2536 30.8625 42.4377 32.9833V32.9882L42.4364 32.9921C42.185 30.4887 42.0857 27.9722 42.1391 25.4567L42.5404 25.4424C45.9381 25.3018 49.1963 24.0515 51.8162 21.8829C54.4361 19.7143 56.2735 16.7469 57.0472 13.4347L57.2768 12.4523L56.2655 12.4963C53.1615 12.6244 50.167 13.6793 47.668 15.5252C45.1689 17.371 43.2798 19.9231 42.244 22.8526C42.288 22.1521 42.3406 21.452 42.4085 20.7529C42.5213 19.574 42.6693 18.3983 42.8525 17.2258C43.2175 14.8783 43.7172 12.5538 44.3492 10.2637C43.6104 12.5282 43.0025 14.8334 42.5284 17.1677C42.2883 18.3357 42.0849 19.5111 41.9181 20.694C41.7481 21.8756 41.6093 23.0628 41.5109 24.2541C41.3454 26.1902 41.2708 28.1333 41.2873 30.0835C41.2862 30.0776 41.2857 30.0716 41.2847 30.0657V30.0608C40.7507 27.1484 39.3739 24.4568 37.325 22.3197C35.2761 20.1826 32.6451 18.694 29.7583 18.0384L28.7762 17.8135L28.8251 18.8203C28.9818 22.1192 30.2155 25.2757 32.337 27.8064C34.4585 30.337 37.3509 32.1023 40.5713 32.8318L41.3726 33.0126L41.3739 33.0129C41.4619 34.6517 41.6156 36.2868 41.8351 37.9181C39.3367 38.0396 36.8639 38.4775 34.4756 39.2211C31.6086 40.0961 28.9287 41.4956 26.5723 43.3487C31.8128 40.8208 37.5581 39.5138 43.3763 39.5262C49.1942 39.5168 54.9388 40.8236 60.1804 43.3487C57.8249 41.4939 55.1451 40.0935 52.2775 39.2189C49.3957 38.322 46.3944 37.8681 43.3763 37.8728ZM46.8255 29.3961C48.2445 28.1967 49.9678 27.4136 51.8044 27.1334C51.2022 28.8895 50.1323 30.448 48.7099 31.6408C47.2874 32.8335 45.5665 33.6154 43.7326 33.9021C44.3302 32.1445 45.4003 30.5854 46.8255 29.3961ZM47.9688 17.2369C50.0463 15.5074 52.5833 14.422 55.2686 14.114C54.4571 16.6914 52.9179 18.9793 50.8366 20.7022C48.7552 22.425 46.2203 23.5094 43.5371 23.8248C44.3421 21.2443 45.8822 18.9548 47.9688 17.2369ZM33.5157 26.8206C31.8352 24.8296 30.7692 22.3932 30.4473 19.8075C32.9315 20.5828 35.1411 22.055 36.8136 24.0493C38.4861 26.0435 39.5511 28.476 39.8823 31.0577C37.3949 30.2912 35.1833 28.8194 33.5157 26.8206Z" fill="white"/>
<path d="M43.3766 42.6939C41.0629 42.6916 38.7623 43.0401 36.5531 43.7275C34.3551 44.3983 32.3007 45.4712 30.4941 46.8918C34.5117 44.9539 38.9162 43.9519 43.3766 43.9614C47.8367 43.9542 52.2407 44.956 56.2591 46.8918C54.4533 45.4699 52.3988 44.3963 50.2005 43.7259C47.9913 43.0382 45.6904 42.6903 43.3766 42.6939Z" fill="white"/>
<path d="M0 68.3124L4.53787 55.291H8.42502L12.8511 68.3124H10.2659L9.35468 65.5965H3.55234L2.60376 68.3124H0ZM8.61069 63.3271L6.47199 56.8909L4.29588 63.3271H8.61069Z" fill="white"/>
<path d="M13.875 68.3124V55.291H16.2931V68.3124H13.875Z" fill="white"/>
<path d="M18.021 54.9749C18.3129 54.7 18.6987 54.5469 19.0996 54.5469C19.5005 54.5469 19.8863 54.7 20.1782 54.9749C20.3217 55.1073 20.4357 55.2685 20.5127 55.448C20.5896 55.6275 20.6278 55.8212 20.6248 56.0165C20.629 56.2092 20.5912 56.4006 20.5141 56.5772C20.437 56.7539 20.3224 56.9117 20.1782 57.0396C20.0358 57.1789 19.8671 57.2884 19.682 57.3619C19.4968 57.4353 19.299 57.4712 19.0998 57.4674C18.6991 57.4756 18.3114 57.3252 18.021 57.0489C17.8772 56.9186 17.763 56.7591 17.686 56.581C17.609 56.403 17.5709 56.2105 17.5744 56.0165C17.5715 55.8212 17.6097 55.6275 17.6867 55.448C17.7636 55.2686 17.8776 55.1073 18.021 54.9749ZM20.2899 58.4534V68.3124H17.8723V58.4534H20.2899Z" fill="white"/>
<path d="M32.5277 55.291C33.5923 55.2351 34.6388 55.5839 35.457 56.2675C35.8082 56.5732 36.0877 56.9525 36.2758 57.3785C36.4638 57.8045 36.5558 58.2667 36.5451 58.7323C36.5527 59.3343 36.4019 59.9277 36.1077 60.4529C35.8274 60.9567 35.412 61.3723 34.9084 61.6528C35.5692 61.9041 36.1371 62.3521 36.5354 62.9365C36.901 63.4942 37.092 64.1482 37.084 64.8151C37.0961 65.2903 37.0022 65.7622 36.8092 66.1965C36.6162 66.6309 36.3289 67.0168 35.9682 67.3263C35.1158 68.021 34.0348 68.3726 32.9368 68.3123H26.5762V55.291H32.5277ZM28.9943 57.5419V60.7971H32.4159C32.6478 60.807 32.8793 60.7701 33.0966 60.6886C33.314 60.6071 33.5126 60.4827 33.6809 60.3227C33.8375 60.1729 33.9613 59.9923 34.0445 59.7922C34.1278 59.5921 34.1686 59.3769 34.1644 59.1603C34.1695 58.9456 34.1299 58.7323 34.0483 58.5337C33.9667 58.3352 33.8447 58.1558 33.6901 58.0068C33.5256 57.8504 33.3314 57.7286 33.1189 57.6487C32.9065 57.5688 32.6801 57.5325 32.4533 57.5419H28.9943ZM28.9943 62.8062V66.0614H32.7697C33.2406 66.084 33.7015 65.9203 34.0526 65.6057C34.2125 65.4545 34.3383 65.2709 34.4217 65.0673C34.5051 64.8636 34.5441 64.6445 34.5361 64.4246C34.5423 64.2059 34.5005 63.9885 34.4138 63.7877C34.3271 63.5868 34.1975 63.4074 34.0341 63.2619C33.6805 62.9512 33.2211 62.7881 32.7507 62.8062L28.9943 62.8062Z" fill="white"/>
<path d="M39.1295 59.7552C39.5722 59.2832 40.1085 58.9087 40.7041 58.6556C41.2997 58.4026 41.9415 58.2766 42.5885 58.2856C43.1414 58.2733 43.6906 58.3779 44.2002 58.5927C44.7098 58.8075 45.1683 59.1275 45.5456 59.5319V58.4531H47.9632V68.3121H45.5456V67.2518C45.1643 67.6485 44.7042 67.961 44.1949 68.1692C43.6857 68.3774 43.1385 68.4768 42.5885 68.4609C41.9399 68.4669 41.2972 68.3357 40.7027 68.076C40.1082 67.8164 39.5753 67.4341 39.1387 66.9541C38.215 65.984 37.699 64.6962 37.6973 63.3565C37.6955 62.0169 38.2082 60.7277 39.1295 59.7553V59.7552ZM39.9663 63.3827C39.9602 63.7605 40.0303 64.1355 40.1725 64.4855C40.3147 64.8355 40.5261 65.1532 40.7939 65.4196C41.0589 65.6884 41.3749 65.9017 41.7233 66.047C42.0717 66.1923 42.4455 66.2667 42.823 66.2659C43.2005 66.265 43.574 66.1889 43.9217 66.042C44.2695 65.8951 44.5844 65.6804 44.8482 65.4103C45.1193 65.1474 45.3341 64.832 45.4795 64.4835C45.625 64.1349 45.6981 63.7604 45.6943 63.3827C45.6975 63.0037 45.6242 62.6279 45.4789 62.2779C45.3335 61.9279 45.119 61.6108 44.8482 61.3456C44.586 61.0729 44.2715 60.8558 43.9236 60.7072C43.5756 60.5586 43.2014 60.4815 42.823 60.4807C42.4447 60.4798 42.0701 60.5551 41.7215 60.7021C41.3728 60.8492 41.0574 61.0649 40.7939 61.3364C40.5264 61.605 40.3154 61.9244 40.1732 62.2759C40.0311 62.6273 39.9607 63.0036 39.9663 63.3827Z" fill="white"/>
<path d="M49.4688 58.4534H51.8864V59.923C52.1729 59.399 52.6147 58.9766 53.1509 58.7139C53.6493 58.471 54.1962 58.3438 54.7506 58.3418C55.025 58.3431 55.2988 58.368 55.569 58.4162V61.0018C55.2089 60.882 54.8322 60.8193 54.4528 60.8159C53.8607 60.8414 53.2862 61.0244 52.7883 61.3459C52.1869 61.6995 51.8863 62.3475 51.8864 63.2899V68.3124H49.4688L49.4688 58.4534Z" fill="white"/>
<path d="M57.2623 59.7553C57.705 59.2832 58.2413 58.9087 58.8369 58.6556C59.4325 58.4026 60.0743 58.2766 60.7214 58.2856C61.2742 58.2733 61.8234 58.3779 62.333 58.5927C62.8426 58.8075 63.3011 59.1275 63.6784 59.5319V58.4531H66.096V68.3121H63.6784V67.2518C63.2971 67.6485 62.837 67.961 62.3278 68.1692C61.8185 68.3775 61.2713 68.4768 60.7214 68.4609C60.0727 68.4669 59.43 68.3357 58.8355 68.0761C58.241 67.8164 57.7081 67.4341 57.2715 66.9541C56.3478 65.984 55.8318 64.6962 55.8301 63.3565C55.8284 62.0169 56.3411 60.7277 57.2623 59.7553L57.2623 59.7553ZM58.0991 63.3827C58.093 63.7605 58.1631 64.1355 58.3053 64.4855C58.4475 64.8355 58.6588 65.1532 58.9267 65.4196C59.1917 65.6884 59.5077 65.9017 59.8561 66.047C60.2045 66.1923 60.5783 66.2667 60.9558 66.2659C61.3333 66.265 61.7068 66.1889 62.0545 66.042C62.4022 65.8951 62.7172 65.6804 62.981 65.4103C63.2521 65.1474 63.4669 64.832 63.6123 64.4835C63.7578 64.1349 63.8308 63.7604 63.8271 63.3827C63.8303 63.0037 63.757 62.628 63.6117 62.2779C63.4663 61.9279 63.2518 61.6108 62.981 61.3457C62.7188 61.0729 62.4043 60.8558 62.0564 60.7072C61.7084 60.5586 61.3341 60.4815 60.9558 60.4807C60.5775 60.4798 60.2029 60.5551 59.8543 60.7021C59.5056 60.8492 59.1902 61.0649 58.9267 61.3364C58.6592 61.605 58.4481 61.9244 58.306 62.2759C58.1639 62.6273 58.0935 63.0037 58.0991 63.3827Z" fill="white"/>
<path d="M70.113 55.291V62.8434L74.1488 58.4533H77.0315L72.81 62.955L77.1432 68.3124H74.3164L71.3779 64.5177L70.113 65.8942V68.3124H67.6953V55.291H70.113Z" fill="white"/>
<path d="M78.1666 59.7552C78.6093 59.2832 79.1456 58.9087 79.7412 58.6556C80.3368 58.4026 80.9786 58.2766 81.6256 58.2856C82.1785 58.2733 82.7277 58.3779 83.2373 58.5927C83.7469 58.8075 84.2054 59.1275 84.5827 59.5319V58.4531H87.0003V68.3121H84.5827V67.2518C84.2014 67.6485 83.7413 67.961 83.232 68.1692C82.7228 68.3774 82.1756 68.4768 81.6256 68.4609C80.9769 68.4669 80.3343 68.3357 79.7398 68.076C79.1453 67.8164 78.6124 67.4341 78.1758 66.9541C77.2521 65.984 76.7361 64.6962 76.7344 63.3565C76.7327 62.0169 77.2453 60.7277 78.1666 59.7553L78.1666 59.7552ZM79.0034 63.3827C78.9973 63.7605 79.0674 64.1355 79.2096 64.4855C79.3518 64.8355 79.5632 65.1532 79.831 65.4196C80.096 65.6884 80.412 65.9017 80.7604 66.047C81.1088 66.1923 81.4826 66.2667 81.8601 66.2659C82.2376 66.265 82.6111 66.1889 82.9588 66.042C83.3066 65.8951 83.6215 65.6804 83.8853 65.4103C84.1564 65.1474 84.3712 64.832 84.5166 64.4835C84.6621 64.1349 84.7352 63.7604 84.7314 63.3827C84.7346 63.0037 84.6614 62.6279 84.516 62.2779C84.3706 61.9279 84.1561 61.6108 83.8853 61.3456C83.6231 61.0729 83.3086 60.8558 82.9607 60.7072C82.6127 60.5586 82.2385 60.4815 81.8601 60.4807C81.4818 60.4798 81.1072 60.5551 80.7586 60.7021C80.41 60.8492 80.0945 61.0649 79.831 61.3364C79.5635 61.605 79.3525 61.9244 79.2103 62.2759C79.0682 62.6273 78.9978 63.0036 79.0034 63.3827Z" fill="white"/>
<path d="M16.2441 77.167V73.3617H18.2896C18.6162 73.3476 18.9382 73.4423 19.2052 73.6311C19.3204 73.7166 19.413 73.829 19.4749 73.9585C19.5368 74.088 19.5661 74.2307 19.5602 74.3741C19.3872 74.4508 19.2421 74.5791 19.1448 74.7416C19.0476 74.904 19.003 75.0925 19.0172 75.2813C19.0314 75.4701 19.1036 75.6499 19.224 75.796C19.3444 75.942 19.507 76.0473 19.6896 76.0972C19.6946 76.2468 19.6641 76.3954 19.6005 76.5308C19.5368 76.6663 19.4419 76.7846 19.3235 76.8761C19.053 77.0786 18.7209 77.1813 18.3833 77.167L16.2441 77.167ZM16.9402 74.9843H18.2108C18.6464 74.9843 18.8642 74.8168 18.8642 74.4817C18.8642 74.1514 18.6536 73.9864 18.2324 73.9864H16.9402L16.9402 74.9843ZM16.9402 76.5423H18.3041C18.7493 76.5423 18.9718 76.37 18.9715 76.0255C18.9715 75.6809 18.7419 75.5085 18.2825 75.5084H16.9402L16.9402 76.5423Z" fill="white"/>
<path d="M20.7675 73.8644C20.9492 73.6805 21.1662 73.5354 21.4056 73.4379C21.645 73.3404 21.9016 73.2925 22.1601 73.2972C22.5484 73.2929 22.9281 73.4124 23.2441 73.6382C23.5595 73.8594 23.8038 74.1675 23.9472 74.525L23.2798 74.6973C23.1903 74.4754 23.0351 74.2863 22.835 74.1553C22.5901 73.9996 22.2992 73.9328 22.011 73.9661C21.7228 73.9994 21.4548 74.1309 21.252 74.3384C21.1315 74.4602 21.0367 74.6049 20.9733 74.764C20.9098 74.9231 20.8789 75.0933 20.8824 75.2645C20.8788 75.4356 20.91 75.6056 20.9742 75.7642C21.0383 75.9228 21.134 76.0667 21.2555 76.1871C21.3723 76.3088 21.5128 76.405 21.6685 76.4699C21.8241 76.5347 21.9915 76.5668 22.1601 76.564C22.399 76.5657 22.633 76.4963 22.8324 76.3646C23.0318 76.2329 23.1875 76.0449 23.2798 75.8245L23.9472 75.9968C23.8065 76.3558 23.5632 76.6655 23.2477 76.887C22.93 77.1119 22.5492 77.23 22.16 77.2246C21.8995 77.2304 21.6405 77.182 21.3996 77.0825C21.1587 76.983 20.941 76.8346 20.7605 76.6465C20.3958 76.275 20.1921 75.7747 20.1934 75.2541C20.1947 74.7334 20.401 74.2341 20.7675 73.8644L20.7675 73.8644Z" fill="white"/>
<path d="M26.3588 77.2245C26.1002 77.2301 25.8432 77.182 25.6041 77.0832C25.365 76.9843 25.149 76.8369 24.9699 76.6503C24.6073 76.2783 24.4049 75.779 24.4063 75.2595C24.4076 74.74 24.6124 74.2418 24.9769 73.8717C25.1555 73.6862 25.3704 73.5395 25.6081 73.4407C25.8459 73.3419 26.1014 73.293 26.3588 73.2972C26.8238 73.2921 27.2736 73.4626 27.6185 73.7746C27.9709 74.0767 28.2018 74.4964 28.2683 74.9558C28.3112 75.1397 28.3136 75.3308 28.2754 75.5157H25.1243C25.156 75.8152 25.3027 76.0907 25.5334 76.2841C25.765 76.4762 26.0581 76.5782 26.3588 76.5712C26.5745 76.5797 26.789 76.5358 26.984 76.4432C27.179 76.3507 27.3487 76.2123 27.4786 76.0399L28.1319 76.2051C27.9709 76.5195 27.718 76.7773 27.4068 76.9444C27.0881 77.1281 26.7267 77.2247 26.3588 77.2245ZM25.8168 72.7048C25.7343 72.7867 25.6227 72.8326 25.5065 72.8325C25.3903 72.8325 25.2788 72.7864 25.1964 72.7044C25.114 72.6225 25.0673 72.5112 25.0666 72.395C25.0658 72.2787 25.1111 72.1669 25.1925 72.0839C25.2326 72.0418 25.2811 72.0086 25.3348 71.9863C25.3885 71.9641 25.4463 71.9533 25.5044 71.9547C25.591 71.9553 25.6755 71.9814 25.7474 72.0297C25.8193 72.078 25.8754 72.1464 25.9087 72.2264C25.942 72.3064 25.9511 72.3944 25.9347 72.4794C25.9184 72.5645 25.8774 72.6429 25.8168 72.7048V72.7048ZM27.5578 74.9701C27.5193 74.6871 27.3788 74.4279 27.1627 74.2413C26.9385 74.046 26.649 73.9422 26.3518 73.9507C26.0525 73.943 25.7609 74.0465 25.5335 74.2413C25.3131 74.4265 25.1677 74.6855 25.1243 74.9701H27.5578ZM27.4465 72.7048C27.375 72.7783 27.2802 72.8246 27.1784 72.836C27.0766 72.8473 26.974 72.823 26.8881 72.767C26.8022 72.7111 26.7384 72.6272 26.7075 72.5294C26.6767 72.4317 26.6807 72.3263 26.7189 72.2312C26.7571 72.1361 26.8271 72.0572 26.9169 72.008C27.0068 71.9588 27.111 71.9423 27.2117 71.9613C27.3123 71.9804 27.4033 72.0338 27.469 72.1124C27.5347 72.1911 27.571 72.2901 27.5719 72.3926C27.5733 72.4504 27.563 72.508 27.5414 72.5617C27.5199 72.6154 27.4875 72.6641 27.4465 72.7048Z" fill="white"/>
<path d="M34.2975 76.5424H34.8431V77.9999H34.1686V77.1671H31.2467V77.9999H30.5723V76.5424C31.0699 76.5378 31.3187 76.1094 31.3189 75.2572V73.3618H34.2975L34.2975 76.5424ZM31.7497 76.5424H33.587V73.9865H32.0295V75.2429C32.049 75.6929 31.9526 76.1403 31.7497 76.5424Z" fill="white"/>
<path d="M35.332 77.1886V76.564C35.4687 76.5776 35.6067 76.5579 35.7342 76.5065C35.8382 76.4599 35.9205 76.3751 35.9638 76.2696C36.0094 76.1666 36.0408 76.058 36.0571 75.9466C36.0729 75.8132 36.0801 75.6789 36.0787 75.5446V73.3618H39.1149V77.1671H38.3969V74.0296H36.7963V75.5516C36.7991 75.7737 36.7762 75.9953 36.7281 76.2121C36.6849 76.3985 36.6096 76.5758 36.5054 76.7362C36.3961 76.8994 36.2379 77.0238 36.0536 77.0916C35.8228 77.1752 35.5767 77.2083 35.332 77.1886Z" fill="white"/>
<path d="M39.7324 77.1671L40.644 75.7455C40.4048 75.6724 40.1941 75.527 40.0408 75.3292C39.8816 75.1243 39.798 74.8707 39.8041 74.6112C39.8009 74.4462 39.8317 74.2822 39.8947 74.1297C39.9577 73.9771 40.0515 73.8391 40.1702 73.7245C40.2908 73.605 40.4344 73.5112 40.5923 73.4489C40.7502 73.3865 40.9192 73.3569 41.0888 73.3619H43.1418V77.1671H42.4457V75.8317H41.3907L40.5292 77.1671H39.7324ZM41.2613 75.2071H42.4457V73.9865H41.2327C41.0453 73.9767 40.8613 74.0397 40.7193 74.1623C40.6582 74.2168 40.6096 74.2838 40.5768 74.3588C40.544 74.4337 40.5278 74.5149 40.5292 74.5967C40.526 74.6821 40.5433 74.7671 40.5794 74.8445C40.6156 74.922 40.6697 74.9897 40.7373 75.042C40.8877 75.1559 41.0728 75.2142 41.2613 75.2071Z" fill="white"/>
<path d="M47.1398 77.1671V74.0151H45.7188V73.3618H49.2288V74.0151H47.8579V77.1671H47.1398Z" fill="white"/>
<path d="M50.0957 73.8719C50.4398 73.5218 50.9049 73.3167 51.3954 73.2987C51.8859 73.2806 52.3648 73.451 52.7337 73.7749C53.0861 74.0769 53.317 74.4966 53.3836 74.956C53.4061 75.0598 53.418 75.1657 53.4192 75.272C53.4196 75.3542 53.41 75.4361 53.3906 75.516H50.2395C50.2712 75.8154 50.4179 76.0909 50.6487 76.2843C50.8802 76.4765 51.1733 76.5784 51.4741 76.5715C51.6898 76.5799 51.9043 76.536 52.0993 76.4435C52.2943 76.3509 52.4639 76.2125 52.5938 76.0401L53.2472 76.2053C53.0861 76.5197 52.8332 76.7776 52.5221 76.9447C52.2033 77.1283 51.8419 77.2249 51.4741 77.2247C51.2154 77.2304 50.9584 77.1822 50.7193 77.0834C50.4802 76.9845 50.2643 76.8371 50.0851 76.6505C49.7219 76.2786 49.5195 75.7788 49.5215 75.259C49.5235 74.7392 49.7297 74.241 50.0956 73.8719H50.0957ZM50.2395 74.9776H52.673C52.6315 74.6889 52.486 74.4253 52.264 74.2363C52.0419 74.0473 51.7586 73.9458 51.467 73.9509C51.1731 73.9452 50.8869 74.0459 50.6613 74.2346C50.4357 74.4233 50.2859 74.6871 50.2395 74.9776Z" fill="white"/>
<path d="M54.0156 77.1671V73.3618H57.4967V77.1671H56.7791V74.0296H54.7332V77.1671H54.0156Z" fill="white"/>
<path d="M58.0781 77.1886V76.564C58.2148 76.5776 58.3528 76.5579 58.4803 76.5065C58.5843 76.4599 58.6665 76.3751 58.7099 76.2696C58.7555 76.1666 58.7869 76.058 58.8032 75.9466C58.819 75.8132 58.8262 75.6789 58.8248 75.5446V73.3618H61.861V77.1671H61.143V74.0296H59.5424V75.5516C59.5452 75.7737 59.5223 75.9953 59.4742 76.2121C59.431 76.3985 59.3557 76.5758 59.2516 76.7362C59.1422 76.8994 58.984 77.0238 58.7997 77.0916C58.5689 77.1752 58.3228 77.2083 58.0781 77.1886Z" fill="white"/>
<path d="M66.247 73.3618V77.1671H65.551V73.6848L63.9715 77.1671H62.6582V73.3618H63.3542V76.7866L64.9047 73.3618H66.247Z" fill="white"/>
<path d="M70.1873 76.4993H70.7544V77.9999H70.0584V77.1671H67.0508V73.3618H67.7543V76.4993H69.4838V73.3618H70.1873V76.4993Z" fill="white"/>
</g>
<defs>
<clipPath id="clip0_18_728">
<rect width="87" height="78" fill="white"/>
</clipPath>
</defs>
</svg>
